nColumns=19
nRows=98
DataType=double
version=3
OpenSimVersion=4.1
endheader
time	ground_force_calcn_r_vx	ground_force_calcn_r_vy	ground_force_calcn_r_vz	ground_force_calcn_r_px	ground_force_calcn_r_py	ground_force_calcn_r_pz	ground_force_calcn_r_mx	ground_force_calcn_r_my	ground_force_calcn_r_mz	ground_force_calcn_l_vx	ground_force_calcn_l_vy	ground_force_calcn_l_vz	ground_force_calcn_l_px	ground_force_calcn_l_py	ground_force_calcn_l_pz	ground_force_calcn_l_mx	ground_force_calcn_l_my	ground_force_calcn_l_mz
0	-82.7162	447.648	-15.6408	0.131106	0	-0.14737	0.310332	-1.67947	0.0586807	0	0	0	0	0	0	0	0	0
0.01	-81.6633	457.478	-15.0213	0.132874	0	-0.147338	0.269739	-1.51107	0.0496162	0	0	0	0	0	0	0	0	0
0.02	-80.3311	468.369	-14.3312	0.135229	0	-0.147233	0.227074	-1.32395	0.0405105	0	0	0	0	0	0	0	0	0
0.03	-78.6983	480.05	-13.6075	0.137846	0	-0.147065	0.184076	-1.12284	0.0318282	0	0	0	0	0	0	0	0	0
0.04	-76.7646	492.207	-12.9079	0.140693	0	-0.146823	0.142406	-0.913093	0.0239454	0	0	0	0	0	0	0	0	0
0.05	-74.5615	504.534	-12.2995	0.143746	0	-0.146497	0.10341	-0.699746	0.0170583	0	0	0	0	0	0	0	0	0
0.06	-72.1571	516.767	-11.8429	0.146992	0	-0.14608	0.0679987	-0.486985	0.0111604	0	0	0	0	0	0	0	0	0
0.07	-69.6524	528.715	-11.5734	0.150436	0	-0.145571	0.0366515	-0.278213	0.00609002	0	0	0	0	0	0	0	0	0
0.08	-67.163	540.277	-11.4896	0.154087	0	-0.144977	0.0095345	-0.0766981	0.00163107	0	0	0	0	0	0	0	0	0
0.09	-64.7962	551.409	-11.553	0.157951	0	-0.14431	-0.0133477	0.113588	-0.00237986	0	0	0	0	0	0	0	0	0
0.1	-62.6369	562.1	-11.6994	0.162033	0	-0.143585	-0.0320118	0.287272	-0.00597919	0	0	0	0	0	0	0	0	0
0.11	-60.7379	572.338	-11.8582	0.166323	0	-0.142821	-0.046378	0.437024	-0.00905467	0	0	0	0	0	0	0	0	0
0.12	-59.1153	582.084	-11.9716	0.1708	0	-0.142033	-0.056242	0.553793	-0.0113897	0	0	0	0	0	0	0	0	0
0.13	-57.7503	591.284	-12.0028	0.175433	0	-0.141238	-0.0613272	0.627906	-0.0127463	0	0	0	0	0	0	0	0	0
0.14	-56.5972	599.872	-11.9366	0.180181	0	-0.140451	-0.0613804	0.650568	-0.0129454	0	0	0	0	0	0	0	0	0
0.15	-55.5904	607.783	-11.774	0.185001	0	-0.139684	-0.0562657	0.615166	-0.011917	0	0	0	0	0	0	0	0	0
0.16	-54.6589	614.956	-11.5245	0.189851	0	-0.138948	-0.0460434	0.518025	-0.00970795	0	0	0	0	0	0	0	0	0
0.17	-53.741	621.355	-11.199	0.194688	0	-0.138252	-0.0310232	0.358691	-0.00646488	0	0	0	0	0	0	0	0	0
0.18	-52.7899	626.965	-10.8092	0.199478	0	-0.137598	-0.0117676	0.13976	-0.00240953	0	0	0	0	0	0	0	0	0
0.19	-51.7748	631.781	-10.3677	0.204191	0	-0.136992	0.010942	-0.133519	0.00219108	0	0	0	0	0	0	0	0	0
0.2	-50.6775	635.802	-9.88453	0.208805	0	-0.136433	0.0361629	-0.453702	0.0070535	0	0	0	0	0	0	0	0	0
0.21	-49.4877	639.034	-9.36605	0.213304	0	-0.135923	0.0628691	-0.811829	0.0118986	0	0	0	0	0	0	0	0	0
0.22	-48.1993	641.495	-8.8166	0.217677	0	-0.13546	0.0900155	-1.19804	0.0164656	0	0	0	0	0	0	0	0	0
0.23	-46.8102	643.213	-8.24182	0.221919	0	-0.135045	0.116606	-1.60226	0.0205306	0	0	0	0	0	0	0	0	0
0.24	-45.3239	644.234	-7.65173	0.226025	0	-0.134676	0.14175	-2.01483	0.0239307	0	0	0	0	0	0	0	0	0
0.25	-43.7489	644.624	-7.06193	0.229994	0	-0.134348	0.1647	-2.42679	0.0265857	0	0	0	0	0	0	0	0	0
0.26	-42.0985	644.463	-6.49254	0.233826	0	-0.134059	0.184863	-2.82997	0.02851	0	0	0	0	0	0	0	0	0
0.27	-40.3912	643.833	-5.96506	0.23752	0	-0.133803	0.201833	-3.21721	0.0298072	0	0	0	0	0	0	0	0	0
0.28	-38.6475	642.811	-5.49921	0.241076	0	-0.133575	0.215391	-3.58253	0.0306484	0	0	0	0	0	0	0	0	0
0.29	-36.8866	641.464	-5.11004	0.244492	0	-0.13337	0.225489	-3.9213	0.0312379	0	0	0	0	0	0	0	0	0
0.3	-35.1217	639.839	-4.80593	0.247766	0	-0.133184	0.23222	-4.23053	0.0317761	0	0	0	0	0	0	0	0	0
0.31	-33.3578	637.969	-4.58773	0.25089	0	-0.133015	0.235765	-4.50901	0.032425	0	0	0	0	0	0	0	0	0
0.32	-31.5909	635.883	-4.45117	0.253857	0	-0.13286	0.236324	-4.75689	0.0332982	0	0	0	0	0	0	0	0	0
0.33	-29.8099	633.614	-4.39242	0.256657	0	-0.132716	0.234058	-4.97495	0.034488	0	0	0	0	0	0	0	0	0
0.34	-27.9995	631.206	-4.41301	0.25928	0	-0.132581	0.229067	-5.16395	0.0361032	0	0	0	0	0	0	0	0	0
0.35	-26.1441	628.699	-4.52174	0.261722	0	-0.132449	0.221407	-5.32428	0.0382934	0	0	0	0	0	0	0	0	0
0.36	-24.2289	626.128	-4.73365	0.263979	0	-0.132312	0.211125	-5.45592	0.0412478	0	0	0	0	0	0	0	0	0
0.37	-22.2406	623.516	-5.06597	0.266055	0	-0.132165	0.198278	-5.55873	0.0451638	0	0	0	0	0	0	0	0	0
0.38	-20.1655	620.884	-5.5331	0.267956	0	-0.132002	0.182949	-5.63288	0.0501982	0	0	0	0	0	0	0	0	0
0.39	-17.9882	618.258	-6.14331	0.269693	0	-0.131817	0.165236	-5.67921	0.0564313	0	0	0	0	0	0	0	0	0
0.4	-15.6909	615.674	-6.89844	0.271277	0	-0.13161	0.145255	-5.69947	0.0638608	0	0	0	0	0	0	0	0	0
0.41	-13.2567	613.187	-7.79464	0.272721	0	-0.131383	0.12315	-5.69629	0.0724094	0	0	0	0	0	0	0	0	0
0.42	-10.6719	610.869	-8.82363	0.274036	0	-0.131139	0.0991076	-5.67301	0.0819432	0	0	0	0	0	0	0	0	0
0.43	-7.92944	608.813	-9.974	0.275237	0	-0.130889	0.0733726	-5.63346	0.0922913	0	0	0	0	0	0	0	0	0
0.44	-5.03149	607.127	-11.232	0.276336	0	-0.130644	0.0462581	-5.58175	0.103264	0	0	0	0	0	0	0	0	0
0.45	-1.98887	605.938	-12.5811	0.27735	0	-0.130413	0.0181254	-5.52216	0.114657	0	0	0	0	0	0	0	0	0
0.46	1.18337	605.388	-14.002	0.278291	0	-0.130214	-0.010671	-5.45905	0.126263	0	0	0	0	0	0	0	0	0
0.47	4.47228	605.618	-15.473	0.279173	0	-0.130057	-0.0398511	-5.39648	0.137875	0	0	0	0	0	0	0	0	0
0.48	7.87392	606.756	-16.9719	0.280009	0	-0.129956	-0.0692691	-5.33781	0.149307	0	0	0	0	0	0	0	0	0
0.49	11.3994	608.894	-18.4807	0.280806	0	-0.129917	-0.0989414	-5.28492	0.160404	0	0	0	0	0	0	0	0	0
0.5	15.0751	612.073	-19.9895	0.281573	0	-0.129944	-0.129001	-5.23766	0.171055	0	0	0	0	0	0	0	0	0
0.51	18.938	616.268	-21.4975	0.282314	0	-0.130031	-0.159601	-5.19364	0.181171	0	0	0	0	0	0	0	0	0
0.52	23.0284	621.387	-23.0119	0.283032	0	-0.130172	-0.190802	-5.1485	0.190664	0	0	0	0	0	0	0	0	0
0.53	27.3833	627.262	-24.5424	0.283732	0	-0.130354	-0.222484	-5.09639	0.199403	0	0	0	0	0	0	0	0	0
0.54	32.0296	633.657	-26.0961	0.284418	0	-0.130563	-0.254289	-5.03071	0.207181	0	0	0	0	0	0	0	0	0
0.55	36.9798	640.282	-27.6707	0.285096	0	-0.130785	-0.285596	-4.94491	0.213701	0	0	0	0	0	0	0	0	0
0.56	42.2303	646.805	-29.248	0.285769	0	-0.131006	-0.315582	-4.8335	0.218567	0	0	0	0	0	0	0	0	0
0.57	47.7625	652.87	-30.7893	0.286444	0	-0.131216	-0.343321	-4.69289	0.221316	0	0	0	0	0	0	0	0	0
0.58	53.5427	658.102	-32.2367	0.287124	0	-0.131406	-0.367897	-4.52188	0.221502	0	0	0	0	0	0	0	0	0
0.59	59.5225	662.12	-33.5194	0.287812	0	-0.131571	-0.388508	-4.3217	0.218783	0	0	0	0	0	0	0	0	0
0.6	65.6387	664.542	-34.5606	0.288511	0	-0.131708	-0.404544	-4.09571	0.213004	0	0	0	0	0	0	0	0	0
0.61	71.8108	664.995	-35.2855	0.289221	0	-0.131818	-0.41562	-3.8488	0.204222	0	0	0	0	0	0	0	0	0
0.62	77.9385	663.112	-35.6268	0.289944	0	-0.1319	-0.421586	-3.58692	0.192713	0	0	0	0	0	0	0	0	0
0.63	83.8995	658.544	-35.529	0.290684	0	-0.131959	-0.422545	-3.31664	0.178935	-3.16223	20.931	-6.15715	0.721248	0	-0.168426	0.00452355	-0.0299417	0.00880776
0.64	89.5494	650.972	-34.9516	0.291446	0	-0.132	-0.418839	-3.04472	0.163475	-5.66086	36.7987	-7.41341	0.750477	0	-0.190959	-0.0179211	0.116497	-0.0234693
0.65	94.7238	640.125	-33.8742	0.292238	0	-0.132028	-0.410979	-2.77732	0.14697	-8.91783	56.408	-8.79725	0.766832	0	-0.202882	-0.0337022	0.213177	-0.0332465
0.66	99.2444	625.793	-32.3007	0.293071	0	-0.132051	-0.399515	-2.51917	0.130029	-13.0102	79.8768	-10.2596	0.776839	0	-0.209503	-0.0488987	0.300217	-0.0385605
0.67	102.928	607.853	-30.2613	0.293957	0	-0.132071	-0.384897	-2.27306	0.113162	-17.9848	107.083	-11.7242	0.783887	0	-0.213627	-0.066087	0.393486	-0.0430817
0.68	105.595	586.274	-27.8107	0.294912	0	-0.132092	-0.36738	-2.03972	0.0967571	-23.8393	137.581	-13.0814	0.789381	0	-0.216404	-0.0867976	0.500924	-0.0476287
0.69	107.087	561.127	-25.0252	0.295953	0	-0.132112	-0.346969	-1.81809	0.0810832	-30.4611	170.658	-14.1749	0.794021	0	-0.218408	-0.112018	0.627579	-0.0521269
0.7	107.273	532.593	-21.9987	0.297091	0	-0.132126	-0.32345	-1.60588	0.066331	-37.6277	205.485	-14.8098	0.798196	0	-0.219963	-0.142086	0.775931	-0.0559234
0.71	106.066	500.971	-18.8372	0.298346	0	-0.132129	-0.296517	-1.40051	0.052661	-45.1148	241.189	-14.8039	0.802127	0	-0.221261	-0.176693	0.944624	-0.0579799
0.72	103.435	466.678	-15.6477	0.29973	0	-0.13211	-0.265945	-1.19989	0.0402322	-52.7096	276.997	-14.0337	0.805942	0	-0.222418	-0.214665	1.1281	-0.0571538
0.73	99.4098	430.236	-12.5285	0.30126	0	-0.132057	-0.231816	-1.00328	0.0292154	-60.2211	312.319	-12.4636	0.809709	0	-0.223497	-0.253783	1.31617	-0.0525238
0.74	94.0817	392.254	-9.56045	0.302952	0	-0.131961	-0.194718	-0.811837	0.019787	-67.4786	346.72	-10.1528	0.813457	0	-0.224532	-0.291027	1.49536	-0.0437876
0.75	87.6039	353.401	-6.8034	0.304821	0	-0.131814	-0.155809	-0.628548	0.0121003	-74.3141	379.858	-7.23306	0.817193	0	-0.225535	-0.323194	1.65202	-0.0314568
0.76	80.1811	314.373	-4.29771	0.306891	0	-0.13161	-0.116701	-0.45756	0.00625518	-80.5674	411.463	-3.87681	0.820912	0	-0.226515	-0.34764	1.77542	-0.0167281
0.77	72.0556	275.862	-2.0694	0.309181	0	-0.131344	-0.079249	-0.303402	0.00227599	-86.0937	441.331	-0.266678	0.824601	0	-0.227479	-0.362779	1.85967	-0.00112372
0.78	63.4888	238.523	-0.136249	0.31172	0	-0.131013	-0.0452787	-0.170109	9.71692e-05	-90.7645	469.316	3.42467	0.828242	0	-0.228433	-0.368155	1.90362	0.013891
0.79	54.745	202.94	1.48761	0.314546	0	-0.130608	-0.0162822	-0.0603585	-0.000442446	-94.476	495.316	7.04047	0.831817	0	-0.229382	-0.364185	1.90934	0.0271395
0.8	46.0786	169.605	2.79074	0.317713	0	-0.130115	0.00675587	0.0248668	0.000409168	-97.1559	519.253	10.4466	0.835307	0	-0.230329	-0.351843	1.88043	0.0378314
0.81	37.726	138.901	3.76775	0.321309	0	-0.129505	0.0233745	0.0860611	0.00233445	-98.7741	541.071	13.5466	0.8387	0	-0.231276	-0.33256	1.82172	0.0456098
0.82	29.8993	111.104	4.42337	0.32548	0	-0.128732	0.0335784	0.124775	0.00496766	-99.3494	560.728	16.2891	0.84199	0	-0.232228	-0.308054	1.73866	0.0505079
0.83	22.7803	86.3838	4.77502	0.330486	0	-0.127712	0.0377157	0.14302	0.00790568	-98.9485	578.199	18.6601	0.845177	0	-0.233186	-0.280046	1.63643	0.0528121
0.84	16.51	64.8168	4.85392	0.336807	0	-0.126301	0.0363171	0.142578	0.0106772	-97.6845	593.495	20.6732	0.848264	0	-0.23415	-0.250149	1.51982	0.0529398
0.85	11.1793	46.3919	4.70425	0.345412	0	-0.124219	0.0298354	0.123811	0.0125548	-95.7047	606.671	22.3583	0.851261	0	-0.235117	-0.219808	1.39336	0.0513509
0.86	6.8204	31.0194	4.37912	0.358562	0	-0.120857	0.0182666	0.0830769	0.0117283	-93.1737	617.807	23.7476	0.854178	0	-0.236083	-0.190261	1.26156	0.0484926
0.87	0	0	0	0	0	0	0	0	0	-90.2556	627.001	24.8648	0.857027	0	-0.237034	-0.16254	1.12915	0.0447786
0.88	0	0	0	0	0	0	0	0	0	-87.1006	634.356	25.7176	0.859817	0	-0.237961	-0.137476	1.00124	0.0405916
0.89	0	0	0	0	0	0	0	0	0	-83.8398	639.984	26.2965	0.862555	0	-0.238849	-0.115736	0.883462	0.0363008
0.9	0	0	0	0	0	0	0	0	0	-80.5835	644.012	26.5795	0.865253	0	-0.239688	-0.0978538	0.782034	0.032276
0.91	0	0	0	0	0	0	0	0	0	-77.4199	646.594	26.5417	0.867916	0	-0.240462	-0.0842242	0.703422	0.0288744
0.92	0	0	0	0	0	0	0	0	0	-74.413	647.923	26.1652	0.870548	0	-0.24117	-0.0750636	0.653588	0.026394
0.93	0	0	0	0	0	0	0	0	0	-71.5997	648.216	25.4484	0.873151	0	-0.241804	-0.0703869	0.637236	0.0250173
0.94	0	0	0	0	0	0	0	0	0	-68.9895	647.703	24.4111	0.875721	0	-0.242367	-0.0699862	0.65706	0.0247637
0.95	0	0	0	0	0	0	0	0	0	-66.5672	646.608	23.0944	0.878249	0	-0.242866	-0.0734411	0.713378	0.0254792
0.96	0	0	0	0	0	0	0	0	0	-64.299	645.138	21.5568	0.880727	0	-0.243311	-0.0801399	0.804076	0.0268675
0.97	0	0	0	0	0	0	0	0	0	-62.1395	643.473	19.8682	0.883139	0	-0.243715	-0.0893079	0.92481	0.0285548
